<?xml version="1.0" encoding="utf-8"?>
<!-- Generator: Adobe Illustrator 16.0.0, SVG Export Plug-In . SVG Version: 6.00 Build 0)  -->
<!DOCTYPE svg PUBLIC "-//W3C//DTD SVG 1.1//EN" "http://www.w3.org/Graphics/SVG/1.1/DTD/svg11.dtd">
<svg version="1.1" xmlns="http://www.w3.org/2000/svg" xmlns:xlink="http://www.w3.org/1999/xlink" x="0px"
	 y="0px" width="300px" height="300px" viewBox="0 0 300 300" enable-background="new 0 0 300 300" xml:space="preserve">
<g>
	<path fill="none" stroke="#000000" d="M50.081,115.561c11.58,0,20.999,9.36,20.999,20.939c0,5.16-1.86,9.899-4.979,13.559
		c-0.36,0.42-0.78,0.84-1.2,1.261c-3.78,3.84-9,6.18-14.759,6.18H29.142v-41.999L50.081,115.561z M36.582,150.06h13.5
		c7.44,0,13.5-6.06,13.5-13.499c0-7.44-6.06-13.5-13.5-13.5h-13.5V150.06z"/>
	<path fill="none" stroke="#000000" d="M84.641,126.841v3.9h26.999v7.5H84.641v7.92c0,2.1,1.74,3.84,3.84,3.84h30.659v7.5H88.481
		c-6.24,0-11.279-5.1-11.279-11.34v-19.319c0-6.24,5.04-11.34,11.279-11.34h30.659v7.5H88.481
		C86.381,123.001,84.641,124.741,84.641,126.841z"/>
	<path fill="none" stroke="#000000" d="M157.359,127.141v-0.24c0-2.1-1.74-3.84-3.84-3.84h-17.04c-2.1,0-3.84,1.74-3.84,3.84v0.24
		c0,2.1,1.74,3.84,3.84,3.84h15.12c3.899,0,7.38,1.68,9.779,4.32c0.18,0.18,0.3,0.36,0.48,0.54c1.859,2.28,3,5.22,3,8.4
		c0,7.319-5.94,13.26-13.26,13.26h-13.14c-7.32,0-13.259-5.94-13.259-13.26h7.5c0,3.18,2.58,5.76,5.76,5.76h13.14
		c3.18,0,5.819-2.58,5.819-5.76c0-3.18-2.64-5.76-5.819-5.76h-15.12c-3.06,0-5.82-1.2-7.86-3.18c-0.54-0.54-1.02-1.14-1.439-1.8
		c-1.26-1.8-1.98-4.02-1.98-6.42v-0.24c0-6.24,5.04-11.34,11.279-11.34h17.04c6.239,0,11.34,5.1,11.34,11.34v0.24L157.359,127.141z"
		/>
	<path fill="none" stroke="#000000" d="M170.86,157.5v-41.999h7.5V157.5H170.86z"/>
	<path fill="none" stroke="#000000" d="M191.859,136.5c0,7.439,6.06,13.5,13.499,13.5h13.499v-8.04h-13.499v-7.5h20.999v23.04
		h-20.999c-11.579,0-20.999-9.42-20.999-21s9.42-21,20.999-21h20.999v7.5h-20.999C197.919,123.001,191.859,129.061,191.859,136.5z"
		/>
	<path fill="none" stroke="#000000" d="M274.356,115.561v41.999l-7.5-5.76l-26.998-20.819v26.579h-7.5v-41.878l7.5,5.76
		l26.998,20.819v-26.759L274.356,115.561z"/>
</g>
</svg>
