<?xml version="1.0" encoding="utf-8"?>
<!-- Generator: Adobe Illustrator 16.0.0, SVG Export Plug-In . SVG Version: 6.00 Build 0)  -->
<!DOCTYPE svg PUBLIC "-//W3C//DTD SVG 1.1//EN" "http://www.w3.org/Graphics/SVG/1.1/DTD/svg11.dtd">
<svg version="1.1" id="레이어_1" xmlns="http://www.w3.org/2000/svg" xmlns:xlink="http://www.w3.org/1999/xlink" x="0px"
	 y="0px" width="600px" height="300px" viewBox="0 0 600 300" enable-background="new 0 0 600 300" xml:space="preserve">
<g>
	<path fill="none" class="path" stroke="#000000" d="M122.881,115.561c11.58,0,20.999,9.36,20.999,20.939c0,5.16-1.86,9.899-4.979,13.559
		c-0.36,0.42-0.78,0.84-1.2,1.261c-3.78,3.84-9,6.18-14.759,6.18h-20.999v-41.999h20.999L122.881,115.561z M136.38,136.561
		c0-7.44-6.06-13.5-13.5-13.5h-13.5v26.999h13.5C130.321,150.06,136.38,144,136.38,136.561z"/>
	<path fill="none" class="path" stroke="#000000" d="M157.441,126.841v3.9h26.999v7.5h-26.999v7.92c0,2.1,1.74,3.84,3.84,3.84h30.659v7.5h-30.659
		c-6.24,0-11.279-5.1-11.279-11.34v-19.319c0-6.24,5.04-11.34,11.279-11.34h30.659v7.5h-30.659
		C159.181,123.001,157.441,124.741,157.441,126.841z"/>
	<path fill="none" class="path" stroke="#000000" d="M238.319,115.501l-3.84,7.5l-17.58,34.499l-17.579-34.499l-3.84-7.5h8.399l3.84,7.5
		l9.18,17.999l9.18-17.999l3.84-7.5H238.319z"/>
	<path fill="none" class="path" stroke="#000000" d="M246.84,126.841v3.9h26.999v7.5H246.84v7.92c0,2.1,1.74,3.84,3.84,3.84h30.659v7.5H250.68
		c-6.24,0-11.279-5.1-11.279-11.34v-19.319c0-6.24,5.04-11.34,11.279-11.34h30.659v7.5H250.68
		C248.58,123.001,246.84,124.741,246.84,126.841z"/>
	<path fill="none" class="path" stroke="#000000" d="M321.958,150.06v7.5h-21.299c-2.1,0-4.08-0.479-5.88-1.38c-2.64-1.32-4.8-3.48-6.06-6.12
		c-0.9-1.8-1.38-3.78-1.38-5.879v-28.619h7.5V144.9c0.36,2.64,2.46,4.74,5.1,5.1L321.958,150.06z"/>
	<path fill="none" class="path" stroke="#000000" d="M363.898,136.5c0,11.58-9.42,21-21,21c-11.579,0-20.999-9.42-20.999-21s9.42-21,20.999-21
		C354.479,115.501,363.898,124.921,363.898,136.5z M356.398,136.5c0-7.44-6.06-13.5-13.5-13.5c-7.439,0-13.499,6.06-13.499,13.5
		c0,7.439,6.06,13.5,13.499,13.5C350.339,150,356.398,143.94,356.398,136.5z"/>
	<path fill="none" class="path" stroke="#000000" d="M403.019,118.861c2.04,2.1,3.3,4.919,3.3,8.04c0,4.56-2.7,8.52-6.6,10.319
		c-1.021,0.48-2.1,0.78-3.24,0.9c-0.12,0-0.24,0-0.359,0v0.06h-20.1v19.32h-7.5v-41.999h26.459c3.12,0,5.94,1.26,7.979,3.3
		L403.019,118.861z M396.599,130.321c1.38-0.6,2.28-1.98,2.28-3.48c0-1.38-0.721-2.34-1.141-2.76c-0.479-0.48-1.38-1.08-2.699-1.08
		h-19.02v7.74h19.02c0.54,0,1.08-0.12,1.56-0.36V130.321z"/>
	<path fill="none" class="path" stroke="#000000" d="M419.76,126.841v3.9h26.998v7.5H419.76v7.92c0,2.1,1.739,3.84,3.84,3.84h30.658v7.5H423.6
		c-6.24,0-11.28-5.1-11.28-11.34v-19.319c0-6.24,5.04-11.34,11.28-11.34h30.658v7.5H423.6
		C421.499,123.001,419.76,124.741,419.76,126.841z"/>
	<path fill="none" class="path" stroke="#000000" d="M494.157,150.12l3.84,7.5h-8.399l-3.84-7.5l-4.02-7.859l-0.181-0.36
		c-1.319-2.16-3.659-3.6-6.359-3.6h-7.5v19.319h-7.5v-41.998h26.52c3.12,0,5.939,1.26,7.979,3.3c2.04,2.04,3.3,4.86,3.3,7.98
		c0,4.56-2.7,8.52-6.6,10.319c-1.021,0.48-2.1,0.78-3.24,0.9L494.157,150.12z M486.718,130.801c0.54,0,1.08-0.12,1.56-0.36
		c1.38-0.6,2.28-1.979,2.28-3.479c0-1.38-0.72-2.34-1.14-2.76c-0.48-0.48-1.381-1.08-2.7-1.08h-19.02v7.739L486.718,130.801z"/>
</g>
</svg>
